<?xml version="1.0" encoding="utf-8"?>
<!-- Generator: Adobe Illustrator 15.1.0, SVG Export Plug-In . SVG Version: 6.00 Build 0)  -->
<!DOCTYPE svg PUBLIC "-//W3C//DTD SVG 1.1//EN" "http://www.w3.org/Graphics/SVG/1.1/DTD/svg11.dtd">
<svg version="1.1" id="Layer_1" xmlns="http://www.w3.org/2000/svg" xmlns:xlink="http://www.w3.org/1999/xlink" x="0px" y="0px"
	 width="213px" height="33px" viewBox="0 0 213 33" enable-background="new 0 0 213 33" xml:space="preserve">
<g>
	<path fill="none" d="M54.37,15.241l2.023,0.161v15.555l-2.023,0.161v1.092h5.537v-1.092l-2.024-0.161V15.402l2.024-0.161v-1.105
		H54.37V15.241z M74.246,24.03c0-1.887-0.38-3.275-1.142-4.164c-0.761-0.891-1.87-1.336-3.327-1.336
		c-1.001,0-1.868,0.226-2.601,0.678c-0.733,0.45-1.314,1.09-1.745,1.917l-0.136-2.347h-3.339v1.105l2.023,0.161v10.912l-2.023,0.161
		h-0.001v1.092h5.537v-1.092l-2.024-0.161v-8.119c0.29-0.91,0.764-1.641,1.422-2.19c0.658-0.551,1.508-0.826,2.551-0.826
		c1.06,0,1.876,0.318,2.452,0.955c0.575,0.639,0.862,1.727,0.862,3.266v6.915l-2.023,0.161v1.092h5.537v-1.092l-2.023-0.161V24.03z
		 M84.468,31.138c-0.228,0.021-0.461,0.03-0.701,0.03c-0.529,0-0.954-0.184-1.272-0.552c-0.318-0.369-0.478-0.992-0.478-1.869
		v-8.752h2.954v-1.217h-2.954v-3.438h-1.502v3.438h-2.309v1.217h2.309v8.752c0,1.29,0.263,2.234,0.789,2.83
		c0.525,0.596,1.259,0.894,2.204,0.894c0.355,0,0.711-0.028,1.067-0.086s0.659-0.141,0.906-0.249l-0.224-1.104
		C84.958,31.082,84.695,31.117,84.468,31.138z M93.426,18.53c-1.564,0-2.899,0.634-4.004,1.9c-1.105,1.266-1.658,2.859-1.658,4.779
		v0.682c0,1.912,0.554,3.487,1.663,4.725c1.11,1.236,2.509,1.855,4.196,1.855c1.068,0,1.987-0.154,2.758-0.465
		c0.77-0.311,1.407-0.73,1.912-1.26l-0.632-1.018c-0.465,0.479-1.024,0.848-1.678,1.104c-0.653,0.258-1.44,0.385-2.358,0.385
		c-1.308,0-2.364-0.51-3.172-1.532c-0.807-1.022-1.21-2.286-1.21-3.794v-0.359h9.484v-1.266c0-1.738-0.472-3.129-1.416-4.172
		C96.368,19.053,95.072,18.53,93.426,18.53z M97.248,24.278h-7.87l-0.025-0.063c0.124-1.266,0.56-2.319,1.309-3.159
		c0.75-0.84,1.671-1.26,2.763-1.26c1.174,0,2.106,0.394,2.794,1.179c0.687,0.786,1.029,1.763,1.029,2.93V24.278z M104.586,12.845
		h-3.501v1.104l2.025,0.162v16.846l-2.024,0.161v1.092h5.524v-1.092l-2.024-0.161V12.845z M112.159,12.845h-3.5v1.104l2.023,0.162
		v16.846l-2.023,0.161v1.092h5.524v-1.092l-2.024-0.161V12.845z M119.93,18.778h-3.501v1.105l2.024,0.161v10.912l-2.024,0.161h0.001
		v1.092h5.523v-1.092l-2.023-0.161V18.778z M119.93,12.845h-1.477v2.085h1.477V12.845z M131.215,22.403
		c-1.847-0.464-3.145-1-3.893-1.607c-0.75-0.609-1.125-1.368-1.125-2.278c0-0.96,0.418-1.764,1.248-2.408
		c0.832-0.646,1.993-0.968,3.482-0.968c1.035,0,1.938,0.16,2.707,0.478c0.77,0.319,1.378,0.759,1.824,1.322l0.211,2.558h1.217
		v-3.092c-0.596-0.777-1.408-1.394-2.438-1.849s-2.204-0.684-3.52-0.684c-1.828,0-3.322,0.435-4.481,1.304
		c-1.158,0.869-1.738,1.994-1.738,3.377c0,1.349,0.51,2.42,1.527,3.215s2.516,1.44,4.494,1.938c1.828,0.479,3.111,1.031,3.849,1.656
		c0.735,0.625,1.104,1.431,1.104,2.415c0,1.034-0.441,1.866-1.322,2.495s-2.034,0.943-3.457,0.943c-1.002,0-1.929-0.162-2.781-0.484
		c-0.853-0.323-1.553-0.795-2.098-1.416l-0.213-2.645h-1.216v3.167c0.704,0.844,1.607,1.493,2.712,1.948
		c1.105,0.455,2.305,0.683,3.594,0.683c1.83,0,3.332-0.427,4.508-1.278s1.763-1.998,1.763-3.438c0-1.382-0.507-2.496-1.521-3.34
		C134.639,23.569,133.159,22.899,131.215,22.403z M145.528,18.53c-1.787,0-3.224,0.633-4.307,1.899
		c-1.086,1.267-1.627,2.89-1.627,4.866v0.409c0,1.987,0.541,3.611,1.627,4.872c1.083,1.263,2.526,1.894,4.332,1.894
		c1.787,0,3.221-0.631,4.301-1.894c1.08-1.261,1.62-2.885,1.62-4.872v-0.409c0-1.979-0.542-3.601-1.626-4.866
		C148.764,19.163,147.324,18.53,145.528,18.53z M149.985,25.705c0,1.558-0.393,2.864-1.179,3.925
		c-0.786,1.059-1.87,1.588-3.253,1.588c-1.406,0-2.503-0.529-3.289-1.588c-0.787-1.061-1.18-2.369-1.18-3.925h-0.001v-0.409
		c0-1.531,0.393-2.83,1.179-3.897c0.787-1.067,1.876-1.602,3.266-1.602c1.391,0,2.48,0.534,3.271,1.602s1.186,2.366,1.186,3.897
		V25.705z M165.205,18.778h-3.401v1.105l1.912,0.161v8.33c-0.273,0.878-0.743,1.563-1.409,2.061
		c-0.667,0.497-1.563,0.745-2.688,0.745c-1.025,0-1.818-0.355-2.377-1.067s-0.838-1.888-0.838-3.526v-7.809h-3.141v1.105
		l1.663,0.161v6.518c0,2.02,0.399,3.509,1.198,4.47c0.798,0.96,1.904,1.439,3.32,1.439c0.993,0,1.855-0.215,2.588-0.646
		c0.733-0.43,1.311-1.038,1.732-1.825l0.137,2.209h3.104v-1.092l-1.8-0.161V18.778z M176.489,18.53c-0.902,0-1.683,0.233-2.34,0.701
		c-0.658,0.468-1.178,1.115-1.559,1.943v-0.162l-0.187-2.234h-3.314v1.105l2.024,0.161v10.912l-2.024,0.161v1.092h5.524v-1.092
		l-2.024-0.161v-8.019c0.257-0.919,0.685-1.641,1.286-2.167c0.6-0.526,1.367-0.788,2.303-0.788l1.104,0.074l0.199-1.39
		c-0.115-0.033-0.264-0.064-0.44-0.093C176.863,18.546,176.678,18.53,176.489,18.53z M188.642,28.026
		c0,1.002-0.376,1.784-1.129,2.348c-0.754,0.563-1.623,0.844-2.607,0.844c-1.458,0-2.528-0.512-3.216-1.537
		c-0.687-1.027-1.029-2.336-1.029-3.924v-0.521c0-1.564,0.345-2.862,1.036-3.893s1.757-1.546,3.196-1.546
		c0.754,0,1.426,0.131,2.018,0.392s1.086,0.614,1.483,1.061l0.236,2.385h1.267l-0.063-2.931c-0.539-0.67-1.238-1.199-2.099-1.589
		c-0.86-0.389-1.809-0.584-2.843-0.584c-1.813,0-3.22,0.63-4.221,1.887c-1.001,1.259-1.502,2.864-1.502,4.817v0.521
		c0,1.971,0.501,3.582,1.502,4.836s2.412,1.881,4.233,1.881c1.365,0,2.563-0.418,3.595-1.254c1.029-0.836,1.523-1.874,1.482-3.115
		l-0.025-0.076H188.642z M198.473,18.53c-1.563,0-2.898,0.634-4.003,1.9c-1.104,1.266-1.657,2.859-1.657,4.779v0.682
		c0,1.912,0.555,3.487,1.664,4.725c1.109,1.236,2.508,1.855,4.195,1.855c1.068,0,1.986-0.154,2.757-0.465
		c0.77-0.311,1.407-0.73,1.912-1.26l-0.634-1.018c-0.463,0.479-1.022,0.848-1.676,1.104c-0.654,0.258-1.441,0.385-2.359,0.385
		c-1.308,0-2.365-0.51-3.172-1.532s-1.211-2.286-1.211-3.794v-0.359h9.486v-1.266c0-1.738-0.473-3.129-1.416-4.172
		C201.417,19.053,200.121,18.53,198.473,18.53z M202.296,24.278h-7.869l-0.025-0.063c0.124-1.266,0.561-2.319,1.31-3.159
		c0.75-0.84,1.67-1.26,2.762-1.26c1.176,0,2.106,0.394,2.793,1.179c0.688,0.786,1.03,1.763,1.03,2.93V24.278z M205.222,19.345h1.14
		v3.336h0.488v-3.336h1.146v-0.412h-2.774V19.345z M211.903,18.933h-0.617l-0.668,1.813c-0.166,0.473-0.3,0.885-0.395,1.262h-0.016
		c-0.096-0.389-0.223-0.801-0.379-1.262l-0.639-1.813h-0.617l-0.262,3.748h0.463l0.1-1.607c0.033-0.562,0.061-1.189,0.072-1.656
		h0.012c0.105,0.443,0.256,0.928,0.434,1.457l0.605,1.784h0.367l0.662-1.818c0.189-0.511,0.346-0.983,0.473-1.423h0.017
		c-0.006,0.467,0.028,1.095,0.056,1.617l0.094,1.646h0.473L211.903,18.933z M11.198,2.837L11.171,2.75l-2.96,0.889V0.515H8.068
		V0.466H4.86v3.215L1.754,2.75L0.863,5.738l0.142,0.045L1.002,5.791l2.876,0.905L2.037,9.324l2.545,1.784l0.021-0.028l0.118,0.083
		l1.835-2.457l1.79,2.403l0.067-0.047l0.075,0.101l2.55-1.786L9.193,6.741l3.019-0.95l-0.895-2.989L11.198,2.837z M9.632,13.464
		H2.148v4.354h2.218v10.255H2.148v4.361h9.66v-4.361H9.632V13.464z M21.657,20.671c-1.763-0.623-2.832-1.052-2.832-1.842
		c0-0.94,0.842-1.502,2.251-1.502c0.557,0,1.084,0.104,1.084,0.104l0.298,2.042h3.758v-5.43c0,0-1.842-0.784-5.141-0.784
		c-4.366,0-7.186,2.317-7.186,5.904c0,3.789,3.161,4.844,5.471,5.62c1.75,0.583,2.82,0.99,2.82,1.868c0,0.413,0,1.673-2.184,1.673
		c-0.813,0-1.417-0.109-1.773-0.195l-0.266-2.047H14.11v5.42c0,0,2.275,1.03,5.87,1.03c4.287,0,7.165-2.548,7.165-6.341
		C27.145,22.602,23.973,21.487,21.657,20.671z M28.819,23.297c0,5.677,3.6,9.214,9.391,9.214c4.201,0,6.461-1.203,6.461-1.203
		v-9.531h-6.72v3.376l2.201,0.333v2.473c-0.463,0.103-0.961,0.156-1.507,0.156c-3.106,0-4.817-1.822-4.817-5.128
		c0-3.357,1.907-5.356,5.101-5.356c0.879,0,1.669,0.173,1.669,0.173l0.315,2.157h3.757v-5.874c0,0-2.075-0.804-5.564-0.804
		C32.954,13.282,28.819,17.308,28.819,23.297z"/>
</g>
</svg>
