<?xml version="1.0" encoding="utf-8"?>
<!-- Generator: Adobe Illustrator 17.1.0, SVG Export Plug-In . SVG Version: 6.00 Build 0)  -->
<!DOCTYPE svg PUBLIC "-//W3C//DTD SVG 1.1//EN" "http://www.w3.org/Graphics/SVG/1.1/DTD/svg11.dtd">
<svg version="1.1" id="Layer_1" xmlns="http://www.w3.org/2000/svg" xmlns:xlink="http://www.w3.org/1999/xlink" x="0px" y="0px"
	 viewBox="0 0 297 75" enable-background="new 0 0 297 75" xml:space="preserve">
<g>
	<polygon fill="#FFFFFF" points="17.8,9.9 17.8,15.4 12.5,13.8 11,18.9 16.2,20.5 13,25.1 17.4,28.1 20.6,23.8 23.8,28.1 28.2,25.1 
		25,20.5 30.2,18.9 28.7,13.8 23.3,15.4 23.3,9.9 	"/>
	<g>
		<polygon fill="#FFFFFF" points="25.8,32.1 13,32.1 13,39.5 16.8,39.5 16.8,57.1 13,57.1 13,64.6 29.5,64.6 29.5,57.1 25.8,57.1 		
			"/>
		<polygon fill="#FFFFFF" points="12.8,25 17.1,28 20.4,23.7 23.6,28 27.9,25 24.8,20.4 30,18.8 28.4,13.7 23.1,15.3 23.1,9.8 
			17.6,9.8 17.6,15.3 12.3,13.7 10.7,18.8 15.9,20.4 		"/>
	</g>
	<path fill="#FFFFFF" d="M46.4,44.4c-3-1.1-4.9-1.8-4.9-3.2c0-1.6,1.4-2.6,3.9-2.6c1,0,1.9,0.2,1.9,0.2l0.5,3.5h6.4v-9.3
		c0,0-3.2-1.3-8.8-1.3c-7.5,0-12.3,4-12.3,10.1c0,6.5,5.4,8.3,9.4,9.6c3,1,4.8,1.7,4.8,3.2c0,0.7,0,2.9-3.7,2.9
		c-1.4,0-2.4-0.2-3-0.3l-0.5-3.5h-6.6V63c0,0,3.9,1.8,10.1,1.8c7.4,0,12.3-4.4,12.3-10.9C55.8,47.7,50.4,45.8,46.4,44.4"/>
	<path fill="#FFFFFF" d="M76,39.2c1.5,0,2.9,0.3,2.9,0.3l0.5,3.7h6.4V33.1c0,0-3.6-1.4-9.5-1.4c-10.6,0-17.6,6.9-17.6,17.2
		c0,9.7,6.2,15.8,16.1,15.8c7.2,0,11.1-2.1,11.1-2.1V46.3H74.4v5.8l3.8,0.6v4.2c-0.8,0.2-1.6,0.3-2.6,0.3c-5.3,0-8.3-3.1-8.3-8.8
		C67.3,42.6,70.6,39.2,76,39.2"/>
</g>
<g>
	<g>
		<path fill="#FFFFFF" d="M102.5,35.7v-1.9h9.5v1.9l-3.5,0.3v26.7l3.5,0.3v1.9h-9.5v-1.9l3.5-0.3V35.9L102.5,35.7z"/>
		<path fill="#FFFFFF" d="M115.5,62.9l3.5-0.3V43.9l-3.5-0.3v-1.9h5.7l0.2,4c0.7-1.4,1.7-2.5,3-3.3c1.3-0.8,2.7-1.2,4.5-1.2
			c2.5,0,4.4,0.8,5.7,2.3c1.3,1.5,2,3.9,2,7.1v11.9l3.5,0.3v1.9h-9.5v-1.9l3.5-0.3V50.8c0-2.6-0.5-4.5-1.5-5.6
			c-1-1.1-2.4-1.6-4.2-1.6c-1.8,0-3.2,0.5-4.4,1.4c-1.1,0.9-1.9,2.2-2.4,3.8v13.9l3.5,0.3v1.9h-9.5V62.9z"/>
		<path fill="#FFFFFF" d="M143.6,43.8v-2.1h3.8v-3.4c0-2.3,0.6-4.1,1.7-5.4c1.2-1.3,2.8-1.9,4.9-1.9c0.5,0,0.9,0,1.4,0.1
			c0.5,0.1,1,0.2,1.5,0.3l-0.3,2.1c-0.3-0.1-0.7-0.2-1-0.2c-0.4,0-0.8-0.1-1.3-0.1c-1.4,0-2.5,0.4-3.2,1.3s-1.1,2.1-1.1,3.7v3.4h5.5
			v2.1H150v18.8l3.5,0.3v1.9H144v-1.9l3.5-0.3V43.8H143.6z"/>
		<path fill="#FFFFFF" d="M159.4,52.9c0-3.4,0.9-6.2,2.8-8.3c1.9-2.2,4.3-3.3,7.4-3.3c3.1,0,5.5,1.1,7.4,3.3s2.8,5,2.8,8.3v0.7
			c0,3.4-0.9,6.2-2.8,8.4c-1.9,2.2-4.3,3.2-7.4,3.2c-3.1,0-5.6-1.1-7.4-3.2c-1.9-2.2-2.8-5-2.8-8.4V52.9z M162,53.6
			c0,2.7,0.7,4.9,2,6.7c1.3,1.8,3.2,2.7,5.6,2.7c2.4,0,4.2-0.9,5.6-2.7c1.3-1.8,2-4.1,2-6.7v-0.7c0-2.6-0.7-4.9-2-6.7
			c-1.4-1.8-3.2-2.7-5.6-2.7c-2.4,0-4.3,0.9-5.6,2.7s-2,4.1-2,6.7V53.6z"/>
		<path fill="#FFFFFF" d="M189.5,41.7l0.3,3.8v0.3c0.7-1.4,1.5-2.5,2.7-3.3c1.1-0.8,2.5-1.2,4-1.2c0.3,0,0.6,0,0.9,0.1
			c0.3,0,0.6,0.1,0.8,0.2l-0.3,2.4l-1.9-0.1c-1.6,0-2.9,0.5-3.9,1.4c-1,0.9-1.8,2.1-2.2,3.7v13.8l3.5,0.3v1.9h-9.5v-1.9l3.5-0.3
			V43.9l-3.5-0.3v-1.9h3.5H189.5z"/>
		<path fill="#FFFFFF" d="M200.9,43.6v-1.9h5.7l0.2,3.8c0.7-1.3,1.7-2.4,3-3.1c1.2-0.7,2.7-1.1,4.4-1.1c1.8,0,3.2,0.4,4.4,1.3
			c1.2,0.9,2,2.2,2.5,3.9c0.7-1.6,1.7-2.9,3-3.8c1.3-0.9,2.8-1.4,4.7-1.4c2.5,0,4.4,0.8,5.7,2.4c1.3,1.6,2,4.2,2,7.6v11.3l3.5,0.3
			v1.9h-9.5v-1.9l3.5-0.3V51.3c0-2.8-0.5-4.8-1.5-6c-1-1.2-2.4-1.8-4.2-1.8c-2,0-3.5,0.6-4.6,1.9c-1.1,1.3-1.7,2.9-2,4.8
			c0,0.1,0,0.2,0,0.3c0,0.1,0,0.2,0,0.4v11.7l3.5,0.3v1.9h-9.5v-1.9l3.5-0.3V51.3c0-2.8-0.5-4.8-1.5-6c-1-1.2-2.4-1.8-4.2-1.8
			c-1.8,0-3.3,0.5-4.3,1.4c-1.1,0.9-1.8,2.1-2.2,3.7v14l3.5,0.3v1.9h-9.5v-1.9l3.5-0.3V43.9L200.9,43.6z"/>
		<path fill="#FFFFFF" d="M242.3,62.9l2.6-0.2l9.6-13.6l-9.3-13.2l-2.6-0.2v-1.9h8.5v1.9l-3,0.1l7.8,11.3l7.9-11.3l-2.9-0.1v-1.9
			h8.5v1.9l-2.6,0.2l-9.3,13.2l9.6,13.6l2.6,0.2v1.9h-8.5v-1.9l2.9-0.1L256,51l-8.2,11.8l2.9,0.1v1.9h-8.5V62.9z"/>
		<path fill="#FFFFFF" d="M273.3,34.5h-2v-0.7h4.8v0.7h-2v5.7h-0.8V34.5z"/>
		<path fill="#FFFFFF" d="M282.2,37.4c0-0.9-0.1-2-0.1-2.8h0c-0.2,0.8-0.5,1.6-0.8,2.4l-1.1,3.1h-0.6l-1-3.1
			c-0.3-0.9-0.6-1.7-0.7-2.5h0c0,0.8-0.1,1.9-0.1,2.8l-0.2,2.8h-0.8l0.4-6.4h1.1l1.1,3.1c0.3,0.8,0.5,1.5,0.6,2.2h0
			c0.2-0.6,0.4-1.4,0.7-2.2l1.1-3.1h1.1l0.4,6.4h-0.8L282.2,37.4z"/>
	</g>
</g>
</svg>
