<?xml version="1.0" encoding="utf-8"?>
<!-- Generator: Adobe Illustrator 21.1.0, SVG Export Plug-In . SVG Version: 6.00 Build 0)  -->
<svg version="1.1" id="Layer_1" xmlns="http://www.w3.org/2000/svg" xmlns:xlink="http://www.w3.org/1999/xlink" x="0px" y="0px"
	 viewBox="0 0 294 54" style="enable-background:new 0 0 294 54;" xml:space="preserve">
<g>
	<g>
		<path style="fill:#777B7C;" d="M77.793,26.472v-1.413h7.081v1.413l-2.588,0.206V46.57l2.588,0.206v1.397h-7.081v-1.397
			l2.587-0.206V26.678L77.793,26.472z"/>
		<path style="fill:#777B7C;" d="M87.494,46.776l2.587-0.206V32.615l-2.587-0.206v-1.413h4.271l0.174,3.001
			c0.55-1.059,1.294-1.876,2.231-2.453c0.937-0.577,2.045-0.865,3.326-0.865c1.863,0,3.281,0.569,4.255,1.707
			c0.974,1.138,1.46,2.913,1.46,5.326v8.858l2.588,0.206v1.397h-7.081v-1.397l2.587-0.206v-8.843c0-1.969-0.368-3.36-1.103-4.176
			c-0.736-0.814-1.781-1.222-3.136-1.222c-1.333,0-2.421,0.352-3.262,1.056s-1.448,1.638-1.818,2.802V46.57l2.588,0.206v1.397
			h-7.081V46.776z"/>
		<path style="fill:#777B7C;" d="M113.149,26.599v4.397h3.778v1.556h-3.778v11.192c0,1.122,0.204,1.919,0.611,2.39
			c0.407,0.471,0.95,0.706,1.627,0.706c0.307,0,0.605-0.013,0.897-0.039c0.291-0.026,0.627-0.071,1.008-0.135l0.286,1.412
			c-0.317,0.138-0.704,0.244-1.159,0.318c-0.455,0.073-0.911,0.11-1.365,0.11c-1.207,0-2.146-0.381-2.818-1.143
			c-0.672-0.762-1.008-1.969-1.008-3.62V32.552h-2.953v-1.556h2.953v-4.397H113.149z"/>
		<path style="fill:#777B7C;" d="M127.993,48.507c-2.158,0-3.947-0.791-5.366-2.373c-1.418-1.582-2.127-3.596-2.127-6.041V39.22
			c0-2.455,0.707-4.493,2.12-6.112s3.12-2.429,5.12-2.429c2.105,0,3.762,0.667,4.969,2c1.207,1.334,1.811,3.112,1.811,5.335v1.619
			h-12.129v0.46c0,1.927,0.516,3.543,1.548,4.851c1.033,1.307,2.384,1.96,4.056,1.96c1.174,0,2.18-0.163,3.016-0.492
			c0.836-0.327,1.551-0.799,2.145-1.412l0.809,1.302c-0.645,0.677-1.461,1.214-2.445,1.611
			C130.534,48.309,129.358,48.507,127.993,48.507z M127.739,32.298c-1.396,0-2.574,0.537-3.533,1.611
			c-0.958,1.074-1.516,2.421-1.674,4.041l0.032,0.079h10.064v-0.477c0-1.492-0.438-2.741-1.316-3.746
			C130.433,32.801,129.241,32.298,127.739,32.298z"/>
		<path style="fill:#777B7C;" d="M137.535,24.82v-1.413h4.477V46.57l2.588,0.206v1.397h-7.064v-1.397l2.588-0.206V25.027
			L137.535,24.82z"/>
		<path style="fill:#777B7C;" d="M147.22,24.82v-1.413h4.477V46.57l2.588,0.206v1.397h-7.064v-1.397l2.588-0.206V25.027
			L147.22,24.82z"/>
		<path style="fill:#777B7C;" d="M157.158,46.776l2.588-0.206V32.615l-2.588-0.206v-1.413h4.477V46.57l2.588,0.206v1.397h-7.064
			V46.776z M161.635,26.075h-1.889v-2.667h1.889V26.075z"/>
		<path style="fill:#777B7C;" d="M183.321,31.917h-1.556l-0.27-3.271c-0.571-0.72-1.35-1.283-2.334-1.691
			c-0.984-0.407-2.138-0.611-3.461-0.611c-1.905,0-3.39,0.413-4.453,1.238c-1.063,0.825-1.596,1.853-1.596,3.08
			c0,1.164,0.479,2.135,1.437,2.913c0.958,0.777,2.617,1.463,4.978,2.056c2.487,0.635,4.379,1.492,5.676,2.572
			c1.296,1.079,1.944,2.503,1.944,4.271c0,1.842-0.751,3.308-2.254,4.397s-3.424,1.635-5.764,1.635c-1.65,0-3.183-0.291-4.596-0.873
			s-2.569-1.413-3.469-2.492v-4.049h1.556l0.271,3.382c0.698,0.794,1.593,1.397,2.683,1.81c1.09,0.413,2.275,0.619,3.556,0.619
			c1.82,0,3.295-0.401,4.422-1.206s1.69-1.868,1.69-3.191c0-1.259-0.471-2.288-1.412-3.088c-0.942-0.799-2.583-1.505-4.922-2.119
			c-2.53-0.635-4.445-1.461-5.747-2.477s-1.953-2.387-1.953-4.112c0-1.767,0.741-3.207,2.223-4.318s3.393-1.667,5.731-1.667
			c1.683,0,3.183,0.292,4.501,0.874c1.317,0.582,2.357,1.371,3.119,2.365V31.917z"/>
		<path style="fill:#777B7C;" d="M186.782,39.331c0-2.529,0.693-4.604,2.08-6.224c1.386-1.619,3.223-2.429,5.509-2.429
			c2.296,0,4.138,0.81,5.524,2.429s2.08,3.694,2.08,6.224v0.523c0,2.541-0.69,4.618-2.072,6.231
			c-1.381,1.614-3.215,2.421-5.501,2.421c-2.308,0-4.154-0.807-5.54-2.421c-1.387-1.613-2.08-3.69-2.08-6.231V39.331z
			 M188.688,39.854c0,1.99,0.502,3.662,1.508,5.018c1.006,1.354,2.408,2.031,4.207,2.031c1.768,0,3.154-0.677,4.16-2.031
			c1.005-1.355,1.508-3.027,1.508-5.018v-0.523c0-1.958-0.506-3.62-1.517-4.985s-2.405-2.048-4.183-2.048
			c-1.778,0-3.17,0.683-4.176,2.048s-1.508,3.027-1.508,4.985V39.854z"/>
		<path style="fill:#777B7C;" d="M217.692,45.348c-0.54,1.006-1.278,1.784-2.215,2.334s-2.04,0.825-3.31,0.825
			c-1.811,0-3.226-0.613-4.247-1.841c-1.021-1.229-1.532-3.133-1.532-5.716v-8.335l-2.127-0.206v-1.413h2.127h1.89v9.986
			c0,2.096,0.357,3.599,1.071,4.509c0.715,0.91,1.728,1.365,3.04,1.365c1.439,0,2.585-0.317,3.438-0.953
			c0.852-0.635,1.452-1.513,1.802-2.635V32.615l-2.444-0.206v-1.413h2.444h1.905V46.57l2.302,0.206v1.397h-3.969L217.692,45.348z"/>
		<path style="fill:#777B7C;" d="M228.741,30.996l0.238,2.857v0.207c0.487-1.059,1.151-1.887,1.993-2.485
			c0.841-0.598,1.839-0.896,2.992-0.896c0.243,0,0.479,0.019,0.706,0.056s0.416,0.077,0.563,0.119l-0.254,1.778l-1.412-0.096
			c-1.196,0-2.178,0.336-2.945,1.008c-0.768,0.673-1.315,1.596-1.644,2.771V46.57l2.588,0.206v1.397h-7.064v-1.397l2.588-0.206
			V32.615l-2.588-0.206v-1.413h2.588H228.741z"/>
		<path style="fill:#777B7C;" d="M244.729,46.903c1.259,0,2.37-0.359,3.334-1.079c0.963-0.72,1.444-1.72,1.444-3.001h1.683
			l0.032,0.096c0.053,1.588-0.58,2.916-1.897,3.984c-1.317,1.069-2.85,1.604-4.596,1.604c-2.329,0-4.134-0.802-5.414-2.405
			c-1.28-1.603-1.921-3.664-1.921-6.184v-0.666c0-2.498,0.641-4.551,1.921-6.16c1.28-1.608,3.08-2.413,5.397-2.413
			c1.323,0,2.535,0.249,3.636,0.746c1.101,0.498,1.995,1.175,2.684,2.032l0.079,3.747h-1.619l-0.302-3.049
			c-0.508-0.571-1.141-1.023-1.897-1.357c-0.757-0.333-1.617-0.5-2.58-0.5c-1.841,0-3.204,0.659-4.088,1.977
			s-1.325,2.977-1.325,4.978v0.666c0,2.032,0.438,3.705,1.317,5.018S242.865,46.903,244.729,46.903z"/>
		<path style="fill:#777B7C;" d="M262.334,48.507c-2.158,0-3.947-0.791-5.365-2.373c-1.419-1.582-2.128-3.596-2.128-6.041V39.22
			c0-2.455,0.707-4.493,2.119-6.112c1.413-1.619,3.12-2.429,5.12-2.429c2.106,0,3.763,0.667,4.97,2
			c1.206,1.334,1.81,3.112,1.81,5.335v1.619H256.73v0.46c0,1.927,0.516,3.543,1.548,4.851c1.032,1.307,2.384,1.96,4.056,1.96
			c1.175,0,2.181-0.163,3.017-0.492c0.836-0.327,1.551-0.799,2.144-1.412l0.81,1.302c-0.646,0.677-1.461,1.214-2.445,1.611
			C264.875,48.309,263.7,48.507,262.334,48.507z M262.08,32.298c-1.396,0-2.574,0.537-3.532,1.611s-1.516,2.421-1.675,4.041
			l0.032,0.079h10.064v-0.477c0-1.492-0.438-2.741-1.317-3.746C264.773,32.801,263.583,32.298,262.08,32.298z"/>
		<path style="fill:#777B7C;" d="M272.167,31.719h-1.457v-0.526h3.548v0.526h-1.465v4.267h-0.626V31.719z"/>
		<path style="fill:#777B7C;" d="M278.829,33.881c-0.035-0.669-0.078-1.472-0.071-2.069h-0.021c-0.163,0.562-0.362,1.166-0.604,1.82
			l-0.847,2.325h-0.469l-0.775-2.282c-0.228-0.676-0.42-1.295-0.555-1.863h-0.015c-0.014,0.598-0.05,1.4-0.092,2.119l-0.128,2.055
			h-0.591l0.335-4.793h0.789l0.817,2.318c0.199,0.59,0.362,1.116,0.483,1.614h0.021c0.121-0.483,0.292-1.01,0.505-1.614l0.854-2.318
			h0.789l0.299,4.793h-0.604L278.829,33.881z"/>
	</g>
	<g>
		<polygon style="fill:#294A7C;" points="14.658,7.639 14.658,11.751 10.688,10.564 9.544,14.386 13.407,15.601 11.043,18.972 
			14.3,21.256 16.713,18.026 19.118,21.256 22.379,18.972 20.019,15.601 23.879,14.386 22.735,10.564 18.763,11.751 18.763,7.639 		
			"/>
		<g>
			<polygon style="fill:#294A7C;" points="20.581,24.199 11.01,24.199 11.01,29.768 13.846,29.768 13.846,42.882 11.01,42.882 
				11.01,48.459 23.364,48.459 23.364,42.882 20.581,42.882 			"/>
			<polygon style="fill:#294A7C;" points="10.868,18.905 14.123,21.187 16.527,17.952 18.936,21.187 22.192,18.905 19.832,15.541 
				23.689,14.319 22.549,10.497 18.58,11.689 18.58,7.577 14.478,7.577 14.478,11.689 10.506,10.497 9.366,14.319 13.223,15.541 			
				"/>
		</g>
		<path style="fill:#294A7C;" d="M35.959,33.416c-2.255-0.798-3.622-1.345-3.622-2.355c0-1.203,1.077-1.921,2.879-1.921
			c0.713,0,1.387,0.133,1.387,0.133l0.382,2.612h4.806V24.94c0,0-2.356-1.002-6.574-1.002c-5.584,0-9.19,2.963-9.19,7.551
			c0,4.845,4.043,6.194,6.997,7.187c2.237,0.746,3.607,1.266,3.607,2.389c0,0.528,0,2.139-2.793,2.139
			c-1.039,0-1.811-0.139-2.267-0.25l-0.34-2.616h-4.924v6.93c0,0,2.909,1.318,7.506,1.318c5.483,0,9.163-3.258,9.163-8.109
			C42.977,35.885,38.92,34.46,35.959,33.416"/>
		<path style="fill:#294A7C;" d="M58.048,29.526c1.125,0,2.135,0.222,2.135,0.222l0.403,2.759h4.805v-7.512
			c0,0-2.653-1.028-7.116-1.028c-7.869,0-13.157,5.148-13.157,12.807c0,7.259,4.604,11.784,12.01,11.784
			c5.372,0,8.263-1.54,8.263-1.54V34.829h-8.594v4.318l2.815,0.425v3.163c-0.593,0.131-1.23,0.199-1.927,0.199
			c-3.972,0-6.16-2.33-6.16-6.557C51.525,32.083,53.964,29.526,58.048,29.526"/>
	</g>
</g>
</svg>
