<?xml version="1.0" encoding="utf-8"?>
<!-- Generator: Adobe Illustrator 15.1.0, SVG Export Plug-In . SVG Version: 6.00 Build 0)  -->
<!DOCTYPE svg PUBLIC "-//W3C//DTD SVG 1.1//EN" "http://www.w3.org/Graphics/SVG/1.1/DTD/svg11.dtd">
<svg version="1.1" id="Layer_1" xmlns="http://www.w3.org/2000/svg" xmlns:xlink="http://www.w3.org/1999/xlink" x="0px" y="0px"
	 width="50px" height="66px" viewBox="852.125 1262.486 50 66" enable-background="new 852.125 1262.486 50 66"
	 xml:space="preserve">
<path fill="#E1ECF2" d="M869.423,1282.505h3.877l3.876,6.49l3.877-6.49h3.877h0.29l0.29,0.097h0.292l0.29,0.099l0.193,0.192
	l0.291,0.098l0.388,0.388l0.388,0.388l0.098,0.29l0.192,0.194l0.098,0.29l0.098,0.291v0.291v0.29v15.402v0.483l-0.098,0.582
	l-0.192,0.483l-0.292,0.389l-0.29,0.387l-0.388,0.389l-0.39,0.29l-0.483,0.192h-0.097l1.26,8.913h-2.131v11.141v0.388v0.29
	l-0.099,0.389l-0.194,0.29l-0.096,0.292l-0.193,0.29l-0.194,0.29l-0.193,0.194l-0.29,0.193l-0.193,0.193l-0.29,0.192l-0.292,0.194
	l-0.387,0.098l-0.293,0.096h-0.388l-0.29,0.098l-0.388-0.098h-0.29l-0.389-0.096l-0.29-0.098l-0.29-0.194l-0.292-0.192l-0.29-0.193
	l-0.194-0.193l-0.29-0.194l-0.193-0.29l-0.099-0.29l-0.192-0.292l-0.098-0.29l-0.096-0.389v-0.29l-0.098-0.388v-11.141h-1.357
	v11.141l-0.097,0.388v0.29l-0.097,0.389l-0.098,0.29l-0.193,0.292l-0.193,0.29l-0.194,0.29l-0.192,0.194l-0.194,0.193l-0.29,0.193
	l-0.291,0.192l-0.291,0.194l-0.291,0.098l-0.387,0.096h-0.291l-0.389,0.098l-0.291-0.098h-0.388l-0.291-0.096l-0.388-0.098
	l-0.29-0.194l-0.291-0.192l-0.193-0.193l-0.291-0.193l-0.192-0.194l-0.194-0.29l-0.194-0.29l-0.192-0.292l-0.097-0.29l-0.098-0.389
	v-0.29v-0.388v-11.141h-2.133l1.261-8.913h-0.098l-0.484-0.192l-0.388-0.29l-0.388-0.389l-0.29-0.387l-0.291-0.389l-0.194-0.483
	l-0.097-0.582v-0.483v-15.402v-0.29v-0.291l0.097-0.291l0.099-0.29l0.097-0.194l0.192-0.29l0.389-0.388l0.388-0.388l0.291-0.098
	l0.193-0.192l0.291-0.099h0.291l0.29-0.097H869.423L869.423,1282.505L869.423,1282.505z M884.735,1275.918h1.646l3.877,6.587
	l3.973-6.587h3.78h0.29l0.291,0.097l0.291,0.098l0.29,0.098l0.291,0.097l0.193,0.098l0.483,0.388l0.293,0.388l0.192,0.29
	l0.097,0.291l0.099,0.193l0.097,0.29v0.291l0.096,0.291v15.499l-0.096,0.484l-0.097,0.582l-0.194,0.386l-0.291,0.486l-0.29,0.386
	l-0.389,0.389l-0.388,0.29l-0.388,0.194l-0.97,0.192v19.956l-0.096,0.29v0.39l-0.1,0.29l-0.096,0.29l-0.194,0.388l-0.096,0.29
	l-0.194,0.194l-0.291,0.29l-0.193,0.193l-0.291,0.194l-0.29,0.193l-0.291,0.097l-0.291,0.192h-0.388l-0.29,0.098h-0.389h-0.389
	l-0.29-0.098h-0.388l-0.29-0.192l-0.29-0.097l-0.292-0.193l-0.29-0.194l-0.194-0.193l-0.193-0.29l-0.193-0.194l-0.193-0.29
	l-0.194-0.388l-0.097-0.29l-0.097-0.29v-0.39v-0.29v-19.858h-0.97v-0.098h-0.774v-13.465v-0.388l-0.098-0.388l-0.097-0.29
	l-0.099-0.388l-0.096-0.291l-0.194-0.291l-0.193-0.291l-0.29-0.192l-0.193-0.193l-0.292-0.291l-0.29-0.097l-0.29-0.194l-0.389-0.097
	l-0.29-0.098l-0.388-0.098h-0.29h-3.005l0.58-0.773l0.485-0.68l0.29-0.773l0.29-0.775l0.194-0.871L884.735,1275.918
	L884.735,1275.918z M856.146,1275.918h3.875l3.877,6.587l3.974-6.587h1.647l0.098,0.872l0.193,0.871l0.291,0.774l0.291,0.774
	l0.483,0.679l0.581,0.774h-3.004h-0.291l-0.389,0.098l-0.388,0.098l-0.29,0.097l-0.291,0.194l-0.291,0.097l-0.291,0.291
	l-0.192,0.193l-0.291,0.192l-0.193,0.291l-0.194,0.29l-0.097,0.291l-0.097,0.389l-0.098,0.289l-0.098,0.389v0.388v13.465h-0.969
	v0.097h-0.775v19.859l-0.097,0.29v0.39l-0.097,0.289l-0.099,0.291l-0.192,0.388l-0.098,0.29l-0.193,0.193l-0.291,0.29l-0.193,0.194
	l-0.291,0.194l-0.29,0.192l-0.291,0.098l-0.291,0.192h-0.388l-0.29,0.098h-0.39h-0.388l-0.29-0.098h-0.291l-0.388-0.192
	l-0.291-0.098l-0.29-0.192l-0.291-0.194l-0.193-0.194l-0.193-0.29l-0.193-0.193l-0.193-0.29l-0.193-0.388l-0.097-0.291l-0.099-0.289
	v-0.39v-0.29v-19.956l-0.969-0.192l-0.484-0.194l-0.388-0.29l-0.388-0.389l-0.291-0.387l-0.291-0.485l-0.193-0.387l-0.097-0.582
	v-0.483v-15.499v-0.291v-0.291l0.097-0.29l0.098-0.193l0.097-0.291l0.193-0.29l0.291-0.388l0.484-0.388l0.193-0.098l0.291-0.097
	l0.291-0.098l0.291-0.098l0.29-0.097L856.146,1275.918L856.146,1275.918L856.146,1275.918z M877.176,1269.814h0.582l0.484,0.098
	l0.582,0.097l0.483,0.193l0.483,0.291l0.484,0.291l0.389,0.29l0.388,0.291l0.388,0.388l0.291,0.483l0.289,0.388l0.194,0.484
	l0.194,0.581l0.096,0.483l0.098,0.582l0.098,0.483l-0.098,0.582l-0.098,0.581l-0.096,0.483l-0.194,0.484l-0.194,0.484l-0.289,0.483
	l-0.291,0.389l-0.388,0.388l-0.388,0.387l-0.389,0.291l-0.484,0.29l-0.483,0.291l-0.483,0.097l-0.582,0.193l-0.484,0.098h-0.582
	h-0.581l-0.582-0.098l-0.483-0.193l-0.484-0.097l-0.484-0.291l-0.484-0.29l-0.387-0.291l-0.389-0.387l-0.389-0.388l-0.29-0.389
	l-0.291-0.483l-0.193-0.484l-0.193-0.484l-0.097-0.483l-0.098-0.581l-0.098-0.582l0.098-0.483l0.098-0.582l0.097-0.483l0.193-0.581
	l0.193-0.484l0.291-0.388l0.29-0.483l0.389-0.388l0.389-0.291l0.387-0.29l0.484-0.291l0.484-0.291l0.484-0.193l0.483-0.097
	l0.582-0.098H877.176L877.176,1269.814L877.176,1269.814z M890.259,1263.422h0.582l0.484,0.098l0.581,0.097l0.483,0.194l0.484,0.192
	l0.483,0.29l0.389,0.388l0.388,0.291l0.39,0.388l0.289,0.483l0.29,0.388l0.194,0.484l0.193,0.484l0.193,0.581v0.581l0.098,0.484
	l-0.098,0.581v0.581l-0.193,0.484l-0.193,0.484l-0.194,0.483l-0.29,0.484l-0.289,0.388l-0.39,0.387l-0.388,0.389l-0.389,0.291
	l-0.483,0.29l-0.484,0.291l-0.483,0.192l-0.581,0.098l-0.484,0.098h-0.582h-0.582l-0.483-0.098l-0.582-0.098l-0.484-0.192
	l-0.484-0.291l-0.482-0.29l-0.389-0.291l-0.389-0.389l-0.388-0.387l-0.291-0.388l-0.29-0.484l-0.193-0.483l-0.193-0.484
	l-0.194-0.484v-0.581l-0.096-0.581l0.096-0.484v-0.581l0.194-0.581l0.193-0.484l0.193-0.484l0.29-0.388l0.291-0.483l0.388-0.388
	l0.389-0.291l0.389-0.388l0.482-0.29l0.484-0.192l0.484-0.194l0.582-0.097l0.483-0.098H890.259L890.259,1263.422L890.259,1263.422z
	 M863.898,1263.422h0.582l0.483,0.098l0.582,0.097l0.484,0.194l0.483,0.192l0.484,0.29l0.388,0.388l0.388,0.291l0.389,0.388
	l0.291,0.483l0.291,0.388l0.193,0.484l0.192,0.484l0.194,0.581v0.581l0.097,0.484l-0.097,0.581v0.581l-0.194,0.484l-0.192,0.484
	l-0.193,0.483l-0.291,0.484l-0.291,0.388l-0.389,0.387l-0.388,0.389l-0.388,0.291l-0.484,0.29l-0.483,0.291l-0.484,0.192
	l-0.582,0.098l-0.483,0.098h-0.582h-0.581l-0.484-0.098l-0.581-0.098l-0.484-0.192l-0.484-0.291l-0.484-0.29l-0.388-0.291
	l-0.388-0.389l-0.389-0.387l-0.291-0.388l-0.29-0.484l-0.193-0.483l-0.193-0.484l-0.194-0.484v-0.581l-0.097-0.581l0.097-0.484
	v-0.581l0.194-0.581l0.193-0.484l0.193-0.484l0.29-0.388l0.291-0.483l0.389-0.388l0.388-0.291l0.388-0.388l0.484-0.29l0.484-0.192
	l0.484-0.194l0.581-0.097l0.484-0.098H863.898L863.898,1263.422L863.898,1263.422z"/>
</svg>
